<mxfile host="app.diagrams.net" agent="Mozilla/5.0 (Windows NT 10.0; Win64; x64) AppleWebKit/537.36 (KHTML, like Gecko) Chrome/133.0.0.0 Safari/537.36" version="26.0.11">
  <diagram name="dashboard - wireframe" id="xbCWJBpyQ70ePlggiMD1">
    <mxGraphModel dx="1834" dy="772" grid="1" gridSize="10" guides="1" tooltips="1" connect="1" arrows="1" fold="1" page="0" pageScale="1" pageWidth="827" pageHeight="1169" math="0" shadow="0">
      <root>
        <mxCell id="0" />
        <mxCell id="1" parent="0" />
        <mxCell id="HNCjidPJLLMuxxQxsIR8-1" value="" style="rounded=0;whiteSpace=wrap;html=1;sketch=1;hachureGap=4;jiggle=2;curveFitting=1;fontFamily=Architects Daughter;fontSource=https%3A%2F%2Ffonts.googleapis.com%2Fcss%3Ffamily%3DArchitects%2BDaughter;" vertex="1" parent="1">
          <mxGeometry x="30" y="200" width="600" height="400" as="geometry" />
        </mxCell>
        <mxCell id="HNCjidPJLLMuxxQxsIR8-2" value="&lt;h1 style=&quot;margin-top: 0px;&quot;&gt;Dashboard&lt;/h1&gt;&lt;p&gt;route: /&lt;/p&gt;" style="text;html=1;whiteSpace=wrap;overflow=hidden;rounded=0;fontFamily=Architects Daughter;fontSource=https%3A%2F%2Ffonts.googleapis.com%2Fcss%3Ffamily%3DArchitects%2BDaughter;" vertex="1" parent="1">
          <mxGeometry x="30" y="120" width="180" height="80" as="geometry" />
        </mxCell>
        <mxCell id="HNCjidPJLLMuxxQxsIR8-3" value="" style="rounded=0;whiteSpace=wrap;html=1;sketch=1;hachureGap=4;jiggle=2;curveFitting=1;fontFamily=Architects Daughter;fontSource=https%3A%2F%2Ffonts.googleapis.com%2Fcss%3Ffamily%3DArchitects%2BDaughter;" vertex="1" parent="1">
          <mxGeometry x="30" y="200" width="120" height="400" as="geometry" />
        </mxCell>
        <mxCell id="HNCjidPJLLMuxxQxsIR8-13" style="edgeStyle=orthogonalEdgeStyle;rounded=0;sketch=1;hachureGap=4;jiggle=2;curveFitting=1;orthogonalLoop=1;jettySize=auto;html=1;fontFamily=Architects Daughter;fontSource=https%3A%2F%2Ffonts.googleapis.com%2Fcss%3Ffamily%3DArchitects%2BDaughter;" edge="1" parent="1" source="HNCjidPJLLMuxxQxsIR8-4" target="HNCjidPJLLMuxxQxsIR8-10">
          <mxGeometry relative="1" as="geometry" />
        </mxCell>
        <mxCell id="HNCjidPJLLMuxxQxsIR8-4" value="Zařízení" style="rounded=0;whiteSpace=wrap;html=1;sketch=1;hachureGap=4;jiggle=2;curveFitting=1;fontFamily=Architects Daughter;fontSource=https%3A%2F%2Ffonts.googleapis.com%2Fcss%3Ffamily%3DArchitects%2BDaughter;" vertex="1" parent="1">
          <mxGeometry x="40" y="250" width="100" height="20" as="geometry" />
        </mxCell>
        <mxCell id="HNCjidPJLLMuxxQxsIR8-18" style="edgeStyle=orthogonalEdgeStyle;rounded=0;sketch=1;hachureGap=4;jiggle=2;curveFitting=1;orthogonalLoop=1;jettySize=auto;html=1;fontFamily=Architects Daughter;fontSource=https%3A%2F%2Ffonts.googleapis.com%2Fcss%3Ffamily%3DArchitects%2BDaughter;" edge="1" parent="1" source="HNCjidPJLLMuxxQxsIR8-5" target="HNCjidPJLLMuxxQxsIR8-14">
          <mxGeometry relative="1" as="geometry" />
        </mxCell>
        <mxCell id="HNCjidPJLLMuxxQxsIR8-5" value="Měření" style="rounded=0;whiteSpace=wrap;html=1;sketch=1;hachureGap=4;jiggle=2;curveFitting=1;fontFamily=Architects Daughter;fontSource=https%3A%2F%2Ffonts.googleapis.com%2Fcss%3Ffamily%3DArchitects%2BDaughter;" vertex="1" parent="1">
          <mxGeometry x="40" y="280" width="100" height="20" as="geometry" />
        </mxCell>
        <mxCell id="HNCjidPJLLMuxxQxsIR8-16" style="edgeStyle=orthogonalEdgeStyle;rounded=0;sketch=1;hachureGap=4;jiggle=2;curveFitting=1;orthogonalLoop=1;jettySize=auto;html=1;fontFamily=Architects Daughter;fontSource=https%3A%2F%2Ffonts.googleapis.com%2Fcss%3Ffamily%3DArchitects%2BDaughter;" edge="1" parent="1" source="HNCjidPJLLMuxxQxsIR8-6" target="HNCjidPJLLMuxxQxsIR8-15">
          <mxGeometry relative="1" as="geometry" />
        </mxCell>
        <mxCell id="HNCjidPJLLMuxxQxsIR8-6" value="Nastavení" style="rounded=0;whiteSpace=wrap;html=1;sketch=1;hachureGap=4;jiggle=2;curveFitting=1;fontFamily=Architects Daughter;fontSource=https%3A%2F%2Ffonts.googleapis.com%2Fcss%3Ffamily%3DArchitects%2BDaughter;" vertex="1" parent="1">
          <mxGeometry x="40" y="310" width="100" height="20" as="geometry" />
        </mxCell>
        <mxCell id="HNCjidPJLLMuxxQxsIR8-12" style="edgeStyle=orthogonalEdgeStyle;rounded=0;sketch=1;hachureGap=4;jiggle=2;curveFitting=1;orthogonalLoop=1;jettySize=auto;html=1;fontFamily=Architects Daughter;fontSource=https%3A%2F%2Ffonts.googleapis.com%2Fcss%3Ffamily%3DArchitects%2BDaughter;" edge="1" parent="1" source="HNCjidPJLLMuxxQxsIR8-8" target="HNCjidPJLLMuxxQxsIR8-11">
          <mxGeometry relative="1" as="geometry" />
        </mxCell>
        <mxCell id="HNCjidPJLLMuxxQxsIR8-8" value="Papago" style="rounded=0;whiteSpace=wrap;html=1;sketch=1;hachureGap=4;jiggle=2;curveFitting=1;fontFamily=Architects Daughter;fontSource=https%3A%2F%2Ffonts.googleapis.com%2Fcss%3Ffamily%3DArchitects%2BDaughter;" vertex="1" parent="1">
          <mxGeometry x="40" y="210" width="100" height="30" as="geometry" />
        </mxCell>
        <mxCell id="HNCjidPJLLMuxxQxsIR8-10" value="/device" style="text;html=1;align=center;verticalAlign=middle;whiteSpace=wrap;rounded=0;fontFamily=Architects Daughter;fontSource=https%3A%2F%2Ffonts.googleapis.com%2Fcss%3Ffamily%3DArchitects%2BDaughter;" vertex="1" parent="1">
          <mxGeometry x="-120" y="245" width="80" height="30" as="geometry" />
        </mxCell>
        <mxCell id="HNCjidPJLLMuxxQxsIR8-11" value="/" style="text;html=1;align=center;verticalAlign=middle;whiteSpace=wrap;rounded=0;fontFamily=Architects Daughter;fontSource=https%3A%2F%2Ffonts.googleapis.com%2Fcss%3Ffamily%3DArchitects%2BDaughter;" vertex="1" parent="1">
          <mxGeometry x="-120" y="210" width="80" height="30" as="geometry" />
        </mxCell>
        <mxCell id="HNCjidPJLLMuxxQxsIR8-14" value="/measuring" style="text;html=1;align=center;verticalAlign=middle;whiteSpace=wrap;rounded=0;fontFamily=Architects Daughter;fontSource=https%3A%2F%2Ffonts.googleapis.com%2Fcss%3Ffamily%3DArchitects%2BDaughter;" vertex="1" parent="1">
          <mxGeometry x="-120" y="275" width="80" height="30" as="geometry" />
        </mxCell>
        <mxCell id="HNCjidPJLLMuxxQxsIR8-15" value="/settings" style="text;html=1;align=center;verticalAlign=middle;whiteSpace=wrap;rounded=0;fontFamily=Architects Daughter;fontSource=https%3A%2F%2Ffonts.googleapis.com%2Fcss%3Ffamily%3DArchitects%2BDaughter;" vertex="1" parent="1">
          <mxGeometry x="-120" y="305" width="80" height="30" as="geometry" />
        </mxCell>
        <mxCell id="HNCjidPJLLMuxxQxsIR8-20" value="&lt;font style=&quot;font-size: 16px;&quot;&gt;&lt;b style=&quot;&quot;&gt;Dashboard&lt;/b&gt;&lt;/font&gt;" style="text;html=1;align=left;verticalAlign=middle;whiteSpace=wrap;rounded=0;fontFamily=Architects Daughter;fontSource=https%3A%2F%2Ffonts.googleapis.com%2Fcss%3Ffamily%3DArchitects%2BDaughter;" vertex="1" parent="1">
          <mxGeometry x="160" y="230" width="460" height="20" as="geometry" />
        </mxCell>
        <mxCell id="HNCjidPJLLMuxxQxsIR8-21" value="" style="rounded=0;whiteSpace=wrap;html=1;sketch=1;hachureGap=4;jiggle=2;curveFitting=1;fontFamily=Architects Daughter;fontSource=https%3A%2F%2Ffonts.googleapis.com%2Fcss%3Ffamily%3DArchitects%2BDaughter;" vertex="1" parent="1">
          <mxGeometry x="150" y="200" width="480" height="20" as="geometry" />
        </mxCell>
        <mxCell id="HNCjidPJLLMuxxQxsIR8-22" value="" style="rounded=1;whiteSpace=wrap;html=1;sketch=1;hachureGap=4;jiggle=2;curveFitting=1;fontFamily=Architects Daughter;fontSource=https%3A%2F%2Ffonts.googleapis.com%2Fcss%3Ffamily%3DArchitects%2BDaughter;" vertex="1" parent="1">
          <mxGeometry x="160" y="260" width="220" height="190" as="geometry" />
        </mxCell>
        <mxCell id="HNCjidPJLLMuxxQxsIR8-25" value="Teplota" style="text;html=1;align=left;verticalAlign=middle;whiteSpace=wrap;rounded=0;fontFamily=Architects Daughter;fontSource=https%3A%2F%2Ffonts.googleapis.com%2Fcss%3Ffamily%3DArchitects%2BDaughter;fontSize=13;fontStyle=1" vertex="1" parent="1">
          <mxGeometry x="170" y="265" width="200" height="30" as="geometry" />
        </mxCell>
        <mxCell id="HNCjidPJLLMuxxQxsIR8-27" value="13:00" style="rounded=1;whiteSpace=wrap;html=1;sketch=1;hachureGap=4;jiggle=2;curveFitting=1;fontFamily=Architects Daughter;fontSource=https%3A%2F%2Ffonts.googleapis.com%2Fcss%3Ffamily%3DArchitects%2BDaughter;" vertex="1" parent="1">
          <mxGeometry x="190" y="300" width="60" height="20" as="geometry" />
        </mxCell>
        <mxCell id="HNCjidPJLLMuxxQxsIR8-28" value="15:00" style="rounded=1;whiteSpace=wrap;html=1;sketch=1;hachureGap=4;jiggle=2;curveFitting=1;fontFamily=Architects Daughter;fontSource=https%3A%2F%2Ffonts.googleapis.com%2Fcss%3Ffamily%3DArchitects%2BDaughter;" vertex="1" parent="1">
          <mxGeometry x="310" y="300" width="60" height="20" as="geometry" />
        </mxCell>
        <mxCell id="HNCjidPJLLMuxxQxsIR8-29" value="Od" style="text;html=1;align=center;verticalAlign=middle;whiteSpace=wrap;rounded=0;fontFamily=Architects Daughter;fontSource=https%3A%2F%2Ffonts.googleapis.com%2Fcss%3Ffamily%3DArchitects%2BDaughter;" vertex="1" parent="1">
          <mxGeometry x="150" y="295" width="50" height="30" as="geometry" />
        </mxCell>
        <mxCell id="HNCjidPJLLMuxxQxsIR8-30" value="Do" style="text;html=1;align=center;verticalAlign=middle;whiteSpace=wrap;rounded=0;fontFamily=Architects Daughter;fontSource=https%3A%2F%2Ffonts.googleapis.com%2Fcss%3Ffamily%3DArchitects%2BDaughter;" vertex="1" parent="1">
          <mxGeometry x="270" y="295" width="50" height="30" as="geometry" />
        </mxCell>
        <mxCell id="HNCjidPJLLMuxxQxsIR8-32" value="&lt;font style=&quot;font-size: 11px;&quot;&gt;papago001&amp;nbsp; &amp;nbsp; &amp;nbsp; &amp;nbsp;⬇️&lt;/font&gt;" style="rounded=1;whiteSpace=wrap;html=1;sketch=1;hachureGap=4;jiggle=2;curveFitting=1;fontFamily=Architects Daughter;fontSource=https%3A%2F%2Ffonts.googleapis.com%2Fcss%3Ffamily%3DArchitects%2BDaughter;align=left;fontStyle=1" vertex="1" parent="1">
          <mxGeometry x="270" y="270" width="100" height="20" as="geometry" />
        </mxCell>
        <mxCell id="HNCjidPJLLMuxxQxsIR8-33" value="" style="rounded=1;whiteSpace=wrap;html=1;sketch=1;hachureGap=4;jiggle=2;curveFitting=1;fontFamily=Architects Daughter;fontSource=https%3A%2F%2Ffonts.googleapis.com%2Fcss%3Ffamily%3DArchitects%2BDaughter;" vertex="1" parent="1">
          <mxGeometry x="400" y="260" width="220" height="190" as="geometry" />
        </mxCell>
        <mxCell id="HNCjidPJLLMuxxQxsIR8-34" value="Vlhkost" style="text;html=1;align=left;verticalAlign=middle;whiteSpace=wrap;rounded=0;fontFamily=Architects Daughter;fontSource=https%3A%2F%2Ffonts.googleapis.com%2Fcss%3Ffamily%3DArchitects%2BDaughter;fontSize=13;fontStyle=1" vertex="1" parent="1">
          <mxGeometry x="410" y="265" width="200" height="30" as="geometry" />
        </mxCell>
        <mxCell id="HNCjidPJLLMuxxQxsIR8-35" value="13:50" style="rounded=1;whiteSpace=wrap;html=1;sketch=1;hachureGap=4;jiggle=2;curveFitting=1;fontFamily=Architects Daughter;fontSource=https%3A%2F%2Ffonts.googleapis.com%2Fcss%3Ffamily%3DArchitects%2BDaughter;" vertex="1" parent="1">
          <mxGeometry x="430" y="300" width="60" height="20" as="geometry" />
        </mxCell>
        <mxCell id="HNCjidPJLLMuxxQxsIR8-36" value="19:20" style="rounded=1;whiteSpace=wrap;html=1;sketch=1;hachureGap=4;jiggle=2;curveFitting=1;fontFamily=Architects Daughter;fontSource=https%3A%2F%2Ffonts.googleapis.com%2Fcss%3Ffamily%3DArchitects%2BDaughter;" vertex="1" parent="1">
          <mxGeometry x="550" y="300" width="60" height="20" as="geometry" />
        </mxCell>
        <mxCell id="HNCjidPJLLMuxxQxsIR8-37" value="Od" style="text;html=1;align=center;verticalAlign=middle;whiteSpace=wrap;rounded=0;fontFamily=Architects Daughter;fontSource=https%3A%2F%2Ffonts.googleapis.com%2Fcss%3Ffamily%3DArchitects%2BDaughter;" vertex="1" parent="1">
          <mxGeometry x="390" y="295" width="50" height="30" as="geometry" />
        </mxCell>
        <mxCell id="HNCjidPJLLMuxxQxsIR8-38" value="Do" style="text;html=1;align=center;verticalAlign=middle;whiteSpace=wrap;rounded=0;fontFamily=Architects Daughter;fontSource=https%3A%2F%2Ffonts.googleapis.com%2Fcss%3Ffamily%3DArchitects%2BDaughter;" vertex="1" parent="1">
          <mxGeometry x="510" y="295" width="50" height="30" as="geometry" />
        </mxCell>
        <mxCell id="HNCjidPJLLMuxxQxsIR8-39" value="&lt;font style=&quot;font-size: 11px;&quot;&gt;papago002&amp;nbsp; &amp;nbsp; &amp;nbsp; ⬇️&lt;/font&gt;" style="rounded=1;whiteSpace=wrap;html=1;sketch=1;hachureGap=4;jiggle=2;curveFitting=1;fontFamily=Architects Daughter;fontSource=https%3A%2F%2Ffonts.googleapis.com%2Fcss%3Ffamily%3DArchitects%2BDaughter;align=left;fontStyle=1" vertex="1" parent="1">
          <mxGeometry x="510" y="270" width="100" height="20" as="geometry" />
        </mxCell>
        <mxCell id="HNCjidPJLLMuxxQxsIR8-40" value="" style="rounded=0;whiteSpace=wrap;html=1;sketch=1;hachureGap=4;jiggle=2;curveFitting=1;fontFamily=Architects Daughter;fontSource=https%3A%2F%2Ffonts.googleapis.com%2Fcss%3Ffamily%3DArchitects%2BDaughter;fillColor=#f5f5f5;fontColor=#333333;strokeColor=#666666;" vertex="1" parent="1">
          <mxGeometry x="170" y="330" width="200" height="110" as="geometry" />
        </mxCell>
        <mxCell id="HNCjidPJLLMuxxQxsIR8-42" value="" style="sketch=0;aspect=fixed;pointerEvents=1;shadow=0;dashed=0;html=1;strokeColor=#666666;labelPosition=center;verticalLabelPosition=bottom;verticalAlign=top;align=center;fillColor=#f5f5f5;shape=mxgraph.mscae.general.graph;hachureGap=4;jiggle=2;curveFitting=1;fontFamily=Architects Daughter;fontSource=https%3A%2F%2Ffonts.googleapis.com%2Fcss%3Ffamily%3DArchitects%2BDaughter;rotation=0;flipV=0;flipH=1;fontColor=#333333;" vertex="1" parent="1">
          <mxGeometry x="270" y="340" width="100" height="100" as="geometry" />
        </mxCell>
        <mxCell id="HNCjidPJLLMuxxQxsIR8-41" value="" style="sketch=0;aspect=fixed;pointerEvents=1;shadow=0;dashed=0;html=1;strokeColor=#666666;labelPosition=center;verticalLabelPosition=bottom;verticalAlign=top;align=center;fillColor=#f5f5f5;shape=mxgraph.mscae.general.graph;hachureGap=4;jiggle=2;curveFitting=1;fontFamily=Architects Daughter;fontSource=https%3A%2F%2Ffonts.googleapis.com%2Fcss%3Ffamily%3DArchitects%2BDaughter;fontColor=#333333;" vertex="1" parent="1">
          <mxGeometry x="170" y="340" width="100" height="100" as="geometry" />
        </mxCell>
        <mxCell id="HNCjidPJLLMuxxQxsIR8-43" value="" style="rounded=0;whiteSpace=wrap;html=1;sketch=1;hachureGap=4;jiggle=2;curveFitting=1;fontFamily=Architects Daughter;fontSource=https%3A%2F%2Ffonts.googleapis.com%2Fcss%3Ffamily%3DArchitects%2BDaughter;fillColor=#f5f5f5;fontColor=#333333;strokeColor=#666666;" vertex="1" parent="1">
          <mxGeometry x="410" y="330" width="200" height="110" as="geometry" />
        </mxCell>
        <mxCell id="HNCjidPJLLMuxxQxsIR8-44" value="" style="sketch=0;aspect=fixed;pointerEvents=1;shadow=0;dashed=0;html=1;strokeColor=#666666;labelPosition=center;verticalLabelPosition=bottom;verticalAlign=top;align=center;fillColor=#f5f5f5;shape=mxgraph.mscae.general.graph;hachureGap=4;jiggle=2;curveFitting=1;fontFamily=Architects Daughter;fontSource=https%3A%2F%2Ffonts.googleapis.com%2Fcss%3Ffamily%3DArchitects%2BDaughter;rotation=0;flipV=0;flipH=1;fontColor=#333333;" vertex="1" parent="1">
          <mxGeometry x="510" y="340" width="100" height="100" as="geometry" />
        </mxCell>
        <mxCell id="HNCjidPJLLMuxxQxsIR8-45" value="" style="sketch=0;aspect=fixed;pointerEvents=1;shadow=0;dashed=0;html=1;strokeColor=#666666;labelPosition=center;verticalLabelPosition=bottom;verticalAlign=top;align=center;fillColor=#f5f5f5;shape=mxgraph.mscae.general.graph;hachureGap=4;jiggle=2;curveFitting=1;fontFamily=Architects Daughter;fontSource=https%3A%2F%2Ffonts.googleapis.com%2Fcss%3Ffamily%3DArchitects%2BDaughter;fontColor=#333333;" vertex="1" parent="1">
          <mxGeometry x="410" y="340" width="100" height="100" as="geometry" />
        </mxCell>
        <mxCell id="HNCjidPJLLMuxxQxsIR8-48" value="" style="rounded=1;whiteSpace=wrap;html=1;sketch=1;hachureGap=4;jiggle=2;curveFitting=1;fontFamily=Architects Daughter;fontSource=https%3A%2F%2Ffonts.googleapis.com%2Fcss%3Ffamily%3DArchitects%2BDaughter;sketchStyle=rough;absoluteArcSize=0;" vertex="1" parent="1">
          <mxGeometry x="160" y="460" width="220" height="150" as="geometry" />
        </mxCell>
        <mxCell id="HNCjidPJLLMuxxQxsIR8-49" value="Online zařízení" style="text;html=1;align=left;verticalAlign=middle;whiteSpace=wrap;rounded=0;fontFamily=Architects Daughter;fontSource=https%3A%2F%2Ffonts.googleapis.com%2Fcss%3Ffamily%3DArchitects%2BDaughter;fontSize=13;fontStyle=1" vertex="1" parent="1">
          <mxGeometry x="170" y="465" width="200" height="30" as="geometry" />
        </mxCell>
        <mxCell id="HNCjidPJLLMuxxQxsIR8-50" value="🟢 papago001 - K345" style="rounded=1;whiteSpace=wrap;html=1;sketch=1;hachureGap=4;jiggle=2;curveFitting=1;fontFamily=Architects Daughter;fontSource=https%3A%2F%2Ffonts.googleapis.com%2Fcss%3Ffamily%3DArchitects%2BDaughter;align=left;" vertex="1" parent="1">
          <mxGeometry x="170" y="495" width="200" height="25" as="geometry" />
        </mxCell>
        <mxCell id="HNCjidPJLLMuxxQxsIR8-51" value="🟢 papago002 - L209" style="rounded=1;whiteSpace=wrap;html=1;sketch=1;hachureGap=4;jiggle=2;curveFitting=1;fontFamily=Architects Daughter;fontSource=https%3A%2F%2Ffonts.googleapis.com%2Fcss%3Ffamily%3DArchitects%2BDaughter;align=left;" vertex="1" parent="1">
          <mxGeometry x="170" y="530" width="200" height="25" as="geometry" />
        </mxCell>
        <mxCell id="HNCjidPJLLMuxxQxsIR8-52" value="🔴 papago003 - W102b" style="rounded=1;whiteSpace=wrap;html=1;sketch=1;hachureGap=4;jiggle=2;curveFitting=1;fontFamily=Architects Daughter;fontSource=https%3A%2F%2Ffonts.googleapis.com%2Fcss%3Ffamily%3DArchitects%2BDaughter;align=left;" vertex="1" parent="1">
          <mxGeometry x="170" y="560" width="200" height="25" as="geometry" />
        </mxCell>
      </root>
    </mxGraphModel>
  </diagram>
</mxfile>
